<?xml version="1.0" encoding="UTF-8" standalone="no"?>
<!-- Generator: Adobe Illustrator 19.0.0, SVG Export Plug-In . SVG Version: 6.00 Build 0)  -->

<svg
   xmlns:dc="http://purl.org/dc/elements/1.1/"
   xmlns:cc="http://creativecommons.org/ns#"
   xmlns:rdf="http://www.w3.org/1999/02/22-rdf-syntax-ns#"
   xmlns:svg="http://www.w3.org/2000/svg"
   xmlns="http://www.w3.org/2000/svg"
   xmlns:sodipodi="http://sodipodi.sourceforge.net/DTD/sodipodi-0.dtd"
   xmlns:inkscape="http://www.inkscape.org/namespaces/inkscape"
   version="1.1"
   id="Capa_1"
   x="0px"
   y="0px"
   viewBox="0 0 512 512"
   style="enable-background:new 0 0 512 512;"
   xml:space="preserve"
   sodipodi:docname="player-right.svg"
   inkscape:version="0.92.3 (2405546, 2018-03-11)"><metadata
   id="metadata97"><rdf:RDF><cc:Work
       rdf:about=""><dc:format>image/svg+xml</dc:format><dc:type
         rdf:resource="http://purl.org/dc/dcmitype/StillImage" /><dc:title></dc:title></cc:Work></rdf:RDF></metadata><defs
   id="defs95" /><sodipodi:namedview
   pagecolor="#ffffff"
   bordercolor="#666666"
   borderopacity="1"
   objecttolerance="10"
   gridtolerance="10"
   guidetolerance="10"
   inkscape:pageopacity="0"
   inkscape:pageshadow="2"
   inkscape:window-width="1148"
   inkscape:window-height="804"
   id="namedview93"
   showgrid="false"
   inkscape:zoom="0.4609375"
   inkscape:cx="1.0847458"
   inkscape:cy="256"
   inkscape:window-x="0"
   inkscape:window-y="0"
   inkscape:window-maximized="0"
   inkscape:current-layer="Capa_1" />









<g
   id="g3832"
   transform="matrix(-0.83050847,0,0,0.83050847,468.61017,43.389831)"><g
     id="g6">
	<g
   id="g4">
		<path
   id="path2"
   d="m 192.922,123.113 c -11.977,8.104 -26.406,12.843 -41.922,12.843 -15.516,0 -29.945,-4.739 -41.922,-12.843 C 97.947,134.006 91,149.152 91,165.956 v 135 c 0,8.284 6.716,15 15,15 h 90 c 8.284,0 15,-6.716 15,-15 v -135 c 0,-16.804 -6.947,-31.95 -18.078,-42.843 z"
   inkscape:connector-curvature="0" />
	</g>
</g><g
     id="g12">
	<g
   id="g10">
		<path
   id="path8"
   d="m 121,345.956 v 105 c 0,8.284 6.716,15 15,15 h 30 c 8.284,0 15,-6.716 15,-15 v -105 z"
   inkscape:connector-curvature="0" />
	</g>
</g><g
     id="g18">
	<g
   id="g16">
		<circle
   id="circle14"
   r="45"
   cy="60.956001"
   cx="151" />
	</g>
</g><g
     id="g24">
	<g
   id="g22">
		<circle
   id="circle20"
   r="45"
   cy="60.956001"
   cx="361" />
	</g>
</g><g
     id="g30">
	<g
   id="g28">
		<path
   id="path26"
   d="m 402.922,123.113 c -11.977,8.104 -26.406,12.843 -41.922,12.843 -15.516,0 -29.945,-4.739 -41.922,-12.843 C 307.947,134.006 301,149.152 301,165.956 v 135 c 0,8.284 6.716,15 15,15 h 90 c 8.284,0 15,-6.716 15,-15 v -135 c 0,-16.804 -6.947,-31.95 -18.078,-42.843 z"
   inkscape:connector-curvature="0" />
	</g>
</g><g
     id="g36">
	<g
   id="g34">
		<rect
   id="rect32"
   height="90"
   width="30"
   y="165.96001"
   x="241" />
	</g>
</g><g
     id="g42">
	<g
   id="g40">
		<path
   id="path38"
   d="m 15,165.956 c -8.291,0 -15,6.709 -15,15 v 60 c 0,8.291 6.709,15 15,15 h 46 v -90 z"
   inkscape:connector-curvature="0" />
	</g>
</g><g
     id="g48">
	<g
   id="g46">
		<path
   id="path44"
   d="m 497,165.956 h -46 v 90 h 46 c 8.291,0 15,-6.709 15,-15 v -60 c 0,-8.291 -6.709,-15 -15,-15 z"
   inkscape:connector-curvature="0" />
	</g>
</g><g
     id="g54">
	<g
   id="g52">
		<path
   id="path50"
   d="m 435.941,406.045 c -0.044,0 -0.088,0 -0.132,0 -24.756,0 -44.927,20.098 -45,44.854 10e-4,0.229 0.063,0.442 0.066,0.672 0.295,24.5 20.204,44.399 44.788,44.473 0.059,0 0.117,0 0.161,0 11.968,0 23.218,-4.644 31.699,-13.066 8.525,-8.481 13.242,-19.761 13.286,-31.787 0.073,-24.814 -20.054,-45.059 -44.868,-45.146 z"
   inkscape:connector-curvature="0" />
	</g>
</g><g
     id="g60">
	<g
   id="g58">
		<path
   id="path56"
   d="m 331,345.956 v 105 c 0,8.284 6.716,15 15,15 h 16.304 c -0.992,-4.896 -1.511,-9.961 -1.494,-15.146 0.078,-24.412 12.039,-45.89 30.19,-59.537 v -45.317 z"
   inkscape:connector-curvature="0" />
	</g>
</g></g>
<g
   id="g62">
</g>
<g
   id="g64">
</g>
<g
   id="g66">
</g>
<g
   id="g68">
</g>
<g
   id="g70">
</g>
<g
   id="g72">
</g>
<g
   id="g74">
</g>
<g
   id="g76">
</g>
<g
   id="g78">
</g>
<g
   id="g80">
</g>
<g
   id="g82">
</g>
<g
   id="g84">
</g>
<g
   id="g86">
</g>
<g
   id="g88">
</g>
<g
   id="g90">
</g>
</svg>