<?xml version="1.0" encoding="UTF-8" standalone="no"?>
<svg
   xmlns:dc="http://purl.org/dc/elements/1.1/"
   xmlns:cc="http://creativecommons.org/ns#"
   xmlns:rdf="http://www.w3.org/1999/02/22-rdf-syntax-ns#"
   xmlns:svg="http://www.w3.org/2000/svg"
   xmlns="http://www.w3.org/2000/svg"
   xmlns:sodipodi="http://sodipodi.sourceforge.net/DTD/sodipodi-0.dtd"
   xmlns:inkscape="http://www.inkscape.org/namespaces/inkscape"
   version="1.1"
   viewBox="0 0 256 256"
   id="svg24"
   sodipodi:docname="logo.svg"
   width="256"
   height="256"
   inkscape:version="0.92.3 (2405546, 2018-03-11)">
  <metadata
     id="metadata28">
    <rdf:RDF>
      <cc:Work
         rdf:about="">
        <dc:format>image/svg+xml</dc:format>
        <dc:type
           rdf:resource="http://purl.org/dc/dcmitype/StillImage" />
        <dc:title>Group 9</dc:title>
      </cc:Work>
    </rdf:RDF>
  </metadata>
  <sodipodi:namedview
     pagecolor="#ffffff"
     bordercolor="#666666"
     borderopacity="1"
     objecttolerance="10"
     gridtolerance="10"
     guidetolerance="10"
     inkscape:pageopacity="0"
     inkscape:pageshadow="2"
     inkscape:window-width="1557"
     inkscape:window-height="1003"
     id="namedview26"
     showgrid="false"
     inkscape:zoom="1.5869908"
     inkscape:cx="34.741302"
     inkscape:cy="64.067042"
     inkscape:window-x="0"
     inkscape:window-y="0"
     inkscape:window-maximized="0"
     inkscape:current-layer="svg24" />
  <title
     id="title2">Group 9</title>
  <desc
     id="desc4">Created with Sketch.</desc>
  <defs
     id="defs8">
    <polygon
       id="b"
       points="220.32,111 0,111 0,0.030696 220.32,0.030696 " />
    <polygon
       id="a"
       points="25.034,24.816 0.84729,24.816 0.84729,0.316 25.034,0.316 " />
  </defs>
  <path
     style="fill:#090a0c;fill-rule:evenodd;stroke-width:0.91598773"
     d="m 48.792573,66.319178 c -2.980062,0.06907 -5.886796,1.377152 -8.01847,3.746244 -4.756725,5.285246 -3.409736,12.348818 3.338346,17.502163 0.210827,0.25584 0.446042,0.424375 0.690568,0.559965 -0.361889,0.08208 -0.736423,0.219121 -1.132461,0.457997 -4.709093,0.234493 -7.087327,3.05701 -8.077509,7.351159 -2.156235,9.348574 -4.296068,18.700634 -6.408336,28.059274 -0.599056,2.65638 -0.727795,5.26136 -0.284457,8.05605 1.916246,12.08096 5.389414,24.11859 1.155719,36.4606 -1.274139,3.71434 -1.729628,7.70795 -2.585161,11.56793 -1.156892,5.22571 0.382124,8.62802 4.306216,9.45149 3.755549,0.78775 6.433598,-1.5069 7.569422,-6.56041 1.918994,-8.53425 3.809021,-17.07573 5.710611,-25.61366 0.826221,2.14524 1.12333,4.23318 1.436598,6.31889 1.017662,6.77281 1.916732,13.56571 3.109349,20.30738 0.688822,3.88744 3.857597,6.15298 7.159733,5.3689 3.390986,-0.80515 5.555937,-3.18641 5.018252,-6.61587 -2.387064,-15.21089 -2.596266,-31.07451 -12.618088,-44.13558 -1.379478,-1.79624 -2.317235,-3.93311 -3.4439,-5.92172 -0.594476,-1.04881 -1.049006,-1.97594 -0.640476,-3.39023 1.013082,-3.49907 1.761115,-7.08473 2.45635,-10.66624 0.455246,-2.34126 1.216919,-3.12692 3.567343,-1.72821 3.663951,2.17821 7.548741,3.98431 11.217272,6.15429 2.345845,1.38772 4.297957,1.45476 6.787611,0.10734 5.432724,-2.94215 7.948484,-1.40733 7.957644,4.63361 0.0055,3.369 0.511307,6.52807 4.610352,6.41907 3.754634,-0.0999 3.205944,1.66167 2.939391,4.1953 -1.531531,14.53489 -2.951284,29.08226 -4.275802,43.63823 -0.271132,2.98245 -0.692316,6.358 4.000289,6.63554 6.252533,0.37097 7.319688,-0.3937 7.861037,-5.84658 1.486648,-14.99655 3.164895,-29.97674 4.420714,-44.99254 0.272047,-3.25083 1.517762,-3.54621 4.1613,-3.53155 16.33114,0.0889 32.66438,0.13908 48.99461,-0.0322 3.30855,-0.0349 4.38609,0.8219 4.68012,4.2257 1.32727,15.30433 3.01406,30.57771 4.52269,45.86738 0.28487,2.88811 1.5039,4.33048 4.62467,4.36346 6.34779,0.0687 7.69178,-1.4386 7.01303,-7.84136 -1.54161,-14.53031 -2.95103,-29.07549 -4.40104,-43.61496 -0.13374,-1.3401 -0.5384,-2.96691 1.67097,-2.90004 5.35302,0.15939 6.25399,-3.04868 6.0076,-7.46924 -0.0843,-1.51413 -1.0027,-3.92994 0.74959,-4.48869 1.97579,-0.63112 4.51873,-1.13521 6.48169,0.69952 2.75987,2.58216 5.52286,1.81328 8.30472,0.0537 4.07339,-2.57758 8.15136,-5.14873 12.32826,-7.78769 2.55653,7.0586 3.73196,13.48394 0.0285,20.12669 -1.83014,3.28381 -2.83272,7.05097 -4.02533,10.66088 -1.13766,3.44228 -2.85005,6.72626 -2.76943,10.5267 0.1722,8.08267 0.21268,16.16682 0.33633,24.25041 0.0779,5.05992 2.41521,7.8439 6.42266,7.73581 3.70149,-0.0998 5.91125,-2.91935 5.93781,-7.70539 0.0349,-6.27452 0.009,-12.54994 0.009,-18.85468 1.49489,0.109 1.46455,1.55875 1.87492,2.60663 2.44019,6.23422 4.82649,12.49003 7.28317,18.71692 1.78526,4.52407 4.80023,6.30622 8.30114,5.01468 3.54029,-1.3062 4.64629,-4.6653 2.99843,-9.15273 -1.25857,-3.42671 -2.20739,-7.01435 -3.86075,-10.24045 -5.64524,-11.01201 -5.99686,-22.76919 -5.42436,-34.71092 0.0504,-1.07629 0.0489,-2.06057 0.86052,-2.95549 2.32203,-2.56201 2.0112,-5.50916 1.27201,-8.60885 -2.08571,-8.7422 -4.04618,-17.51516 -6.05769,-26.273836 -1.30711,-5.69469 -3.12042,-7.304577 -8.94518,-7.955846 -0.32395,-0.175157 -0.62476,-0.263693 -0.91421,-0.309502 0.28167,-0.09906 0.55782,-0.218726 0.82654,-0.370336 0.94621,-0.727294 1.95733,-1.384546 2.83026,-2.19336 3.76288,-3.490829 4.78726,-8.344266 2.77301,-12.839932 -1.85746,-4.147711 -5.98579,-6.646982 -10.5446,-6.469162 -0.30391,0.01182 -0.61058,0.03563 -0.91778,0.07154 -4.70084,0.549588 -8.46937,4.195527 -9.45863,9.147353 -1.31628,6.58962 3.28475,11.79776 11.63948,13.174487 0.37972,-0.04415 0.75956,-0.08949 1.13783,-0.141338 -0.41805,0.252561 -0.81246,0.590111 -1.20224,0.949978 -4.73474,2.500647 -5.15862,6.517395 -3.4439,10.909554 1.07354,2.75071 0.0974,3.91368 -2.11286,5.39575 -5.6553,3.79036 -12.11171,6.38194 -16.96187,11.40155 -1.28787,1.33368 -3.24713,0.73727 -4.81072,0.424 -1.65519,-0.33251 -0.98955,-1.99677 -0.98039,-3.09504 0.0311,-3.76837 -2.02368,-5.08388 -5.48519,-5.07014 -9.30094,0.0375 -18.6027,0.0206 -27.90365,0.0197 -19.05987,-0.002 -38.11779,0.005 -57.17766,-0.0233 -2.727811,-0.004 -5.126053,0.18255 -6.098833,3.46179 -0.486389,1.63779 1.342553,4.14261 -1.781881,4.90197 -2.910094,0.70622 -4.350327,-0.97642 -5.826899,-3.01632 -0.577988,-0.79783 -1.689553,-1.24319 -2.613785,-1.74789 -3.740894,-2.04266 -7.391305,-4.30429 -11.288833,-5.9897 -3.794938,-1.64053 -5.478938,-3.55114 -3.72299,-7.868191 1.626794,-4.001036 0.416202,-7.4768 -3.563764,-9.673338 -0.418284,-0.425092 -0.851368,-0.7825 -1.30242,-1.057323 0.429921,0.02381 0.855582,0.06464 1.254116,0.200374 1.337342,-0.258308 2.714114,-0.393039 4.005657,-0.797911 4.338118,-1.358406 7.583534,-5.733641 7.744748,-10.285183 0.152054,-4.313384 -3.104912,-9.09629 -7.263497,-10.664459 -1.319022,-0.497209 -2.688653,-0.721964 -4.043227,-0.690564 z"
     id="path10"
     inkscape:connector-curvature="0" />
</svg>
